<svg xmlns="http://www.w3.org/2000/svg" xmlns:xlink="http://www.w3.org/1999/xlink" width="223" zoomAndPan="magnify" viewBox="0 0 167.25 127.499994" height="170" preserveAspectRatio="xMidYMid meet" version="1.0"><defs><g/><clipPath id="b6f1564222"><path d="M 0 0.0351562 L 166.503906 0.0351562 L 166.503906 126.964844 L 0 126.964844 Z M 0 0.0351562 " clip-rule="nonzero"/></clipPath><clipPath id="ad5b5dcf58"><path d="M 0.00390625 0.0351562 L 165.972656 0.0351562 L 165.972656 126.484375 L 0.00390625 126.484375 Z M 0.00390625 0.0351562 " clip-rule="nonzero"/></clipPath><clipPath id="c91b9b0d8d"><path d="M 0.00390625 0.03125 L 147.75 0.03125 L 165.972656 63.257812 L 147.75 126.484375 L 0.00390625 126.484375 Z M 0.00390625 0.03125 " clip-rule="nonzero"/></clipPath><clipPath id="de830d8186"><path d="M 70.976562 0.0351562 L 165.964844 0.0351562 L 165.964844 42.683594 L 70.976562 42.683594 Z M 70.976562 0.0351562 " clip-rule="nonzero"/></clipPath><clipPath id="6430482ed4"><path d="M 70.976562 41.9375 L 165.964844 41.9375 L 165.964844 84.585938 L 70.976562 84.585938 Z M 70.976562 41.9375 " clip-rule="nonzero"/></clipPath><clipPath id="69d9f3b9c0"><path d="M 70.976562 83.839844 L 165.964844 83.839844 L 165.964844 126.488281 L 70.976562 126.488281 Z M 70.976562 83.839844 " clip-rule="nonzero"/></clipPath></defs><g clip-path="url(#b6f1564222)"><path fill="#ffffff" d="M 0 0.0351562 L 166.503906 0.0351562 L 166.503906 126.964844 L 0 126.964844 Z M 0 0.0351562 " fill-opacity="1" fill-rule="nonzero"/></g><g clip-path="url(#ad5b5dcf58)"><g clip-path="url(#c91b9b0d8d)"><path fill="#e40203" d="M 0.00390625 126.484375 L 0.00390625 0.03125 L 165.972656 0.03125 L 165.972656 126.484375 Z M 0.00390625 126.484375 " fill-opacity="1" fill-rule="nonzero"/></g></g><g clip-path="url(#de830d8186)"><path fill="#009739" d="M 70.976562 0.0351562 L 165.9375 0.0351562 L 165.9375 42.683594 L 70.976562 42.683594 Z M 70.976562 0.0351562 " fill-opacity="1" fill-rule="nonzero"/></g><g clip-path="url(#6430482ed4)"><path fill="#ffffff" d="M 70.976562 41.9375 L 165.9375 41.9375 L 165.9375 84.585938 L 70.976562 84.585938 Z M 70.976562 41.9375 " fill-opacity="1" fill-rule="nonzero"/></g><g clip-path="url(#69d9f3b9c0)"><path fill="#000000" d="M 70.976562 83.839844 L 165.9375 83.839844 L 165.9375 126.488281 L 70.976562 126.488281 Z M 70.976562 83.839844 " fill-opacity="1" fill-rule="nonzero"/></g><g fill="#ffffff" fill-opacity="1"><g transform="translate(9.624899, 30.437987)"><g><path d="M 6.546875 0.1875 C 5.421875 0.1875 4.445312 -0.0664062 3.625 -0.578125 C 2.800781 -1.085938 2.164062 -1.859375 1.71875 -2.890625 C 1.28125 -3.929688 1.0625 -5.210938 1.0625 -6.734375 C 1.0625 -8.273438 1.328125 -9.5625 1.859375 -10.59375 C 2.390625 -11.625 3.128906 -12.394531 4.078125 -12.90625 C 5.035156 -13.414062 6.140625 -13.671875 7.390625 -13.671875 C 8.679688 -13.671875 9.78125 -13.429688 10.6875 -12.953125 C 11.601562 -12.472656 12.242188 -11.757812 12.609375 -10.8125 L 10.65625 -9.625 L 10.4375 -9.640625 C 10.15625 -10.242188 9.765625 -10.679688 9.265625 -10.953125 C 8.765625 -11.234375 8.140625 -11.375 7.390625 -11.375 C 6.234375 -11.375 5.347656 -11.003906 4.734375 -10.265625 C 4.117188 -9.535156 3.8125 -8.359375 3.8125 -6.734375 C 3.8125 -5.109375 4.097656 -3.925781 4.671875 -3.1875 C 5.242188 -2.445312 6.09375 -2.078125 7.21875 -2.078125 C 8.1875 -2.078125 8.898438 -2.296875 9.359375 -2.734375 C 9.828125 -3.171875 10.0625 -3.820312 10.0625 -4.6875 L 10.0625 -5.265625 L 6.859375 -5.265625 L 6.859375 -7.4375 L 12.703125 -7.4375 L 12.703125 0 L 10.15625 0 L 10.15625 -1.8125 L 9.96875 -1.828125 C 9.6875 -1.179688 9.265625 -0.679688 8.703125 -0.328125 C 8.140625 0.015625 7.421875 0.1875 6.546875 0.1875 Z M 6.546875 0.1875 "/></g></g></g><g fill="#ffffff" fill-opacity="1"><g transform="translate(23.680374, 30.437987)"><g><path d="M 1.46875 0 L 1.46875 -10.171875 L 3.9375 -10.171875 L 3.9375 -8.65625 L 4.140625 -8.625 C 4.378906 -9.1875 4.695312 -9.597656 5.09375 -9.859375 C 5.5 -10.117188 5.988281 -10.25 6.5625 -10.25 C 7.132812 -10.25 7.570312 -10.15625 7.875 -9.96875 L 7.453125 -7.765625 L 7.25 -7.71875 C 7.082031 -7.789062 6.921875 -7.84375 6.765625 -7.875 C 6.617188 -7.90625 6.4375 -7.921875 6.21875 -7.921875 C 5.5 -7.921875 4.953125 -7.671875 4.578125 -7.171875 C 4.203125 -6.671875 4.015625 -5.863281 4.015625 -4.75 L 4.015625 0 Z M 1.46875 0 "/></g></g></g><g fill="#ffffff" fill-opacity="1"><g transform="translate(31.652826, 30.437987)"><g><path d="M 10.046875 -4.5 L 3.515625 -4.5 C 3.585938 -3.613281 3.835938 -2.96875 4.265625 -2.5625 C 4.691406 -2.164062 5.28125 -1.96875 6.03125 -1.96875 C 6.613281 -1.96875 7.082031 -2.078125 7.4375 -2.296875 C 7.800781 -2.515625 8.097656 -2.847656 8.328125 -3.296875 L 8.515625 -3.296875 L 10.21875 -2.203125 C 9.882812 -1.492188 9.378906 -0.914062 8.703125 -0.46875 C 8.035156 -0.03125 7.144531 0.1875 6.03125 0.1875 C 4.976562 0.1875 4.066406 -0.0078125 3.296875 -0.40625 C 2.535156 -0.800781 1.945312 -1.394531 1.53125 -2.1875 C 1.113281 -2.976562 0.90625 -3.941406 0.90625 -5.078125 C 0.90625 -6.234375 1.125 -7.207031 1.5625 -8 C 2 -8.789062 2.585938 -9.378906 3.328125 -9.765625 C 4.078125 -10.160156 4.914062 -10.359375 5.84375 -10.359375 C 7.28125 -10.359375 8.378906 -9.976562 9.140625 -9.21875 C 9.910156 -8.457031 10.296875 -7.335938 10.296875 -5.859375 C 10.296875 -5.328125 10.273438 -4.914062 10.234375 -4.625 Z M 7.859375 -6.15625 C 7.828125 -6.925781 7.644531 -7.488281 7.3125 -7.84375 C 6.976562 -8.195312 6.488281 -8.375 5.84375 -8.375 C 4.550781 -8.375 3.789062 -7.632812 3.5625 -6.15625 Z M 7.859375 -6.15625 "/></g></g></g><g fill="#ffffff" fill-opacity="1"><g transform="translate(42.703657, 30.437987)"><g><path d="M 3.96875 0.1875 C 3.3125 0.1875 2.742188 0.0664062 2.265625 -0.171875 C 1.785156 -0.410156 1.414062 -0.757812 1.15625 -1.21875 C 0.90625 -1.6875 0.78125 -2.242188 0.78125 -2.890625 C 0.78125 -3.492188 0.90625 -4 1.15625 -4.40625 C 1.414062 -4.8125 1.816406 -5.144531 2.359375 -5.40625 C 2.898438 -5.675781 3.609375 -5.878906 4.484375 -6.015625 C 5.085938 -6.117188 5.546875 -6.226562 5.859375 -6.34375 C 6.179688 -6.457031 6.394531 -6.585938 6.5 -6.734375 C 6.613281 -6.878906 6.671875 -7.066406 6.671875 -7.296875 C 6.671875 -7.617188 6.554688 -7.863281 6.328125 -8.03125 C 6.097656 -8.207031 5.722656 -8.296875 5.203125 -8.296875 C 4.628906 -8.296875 4.085938 -8.171875 3.578125 -7.921875 C 3.066406 -7.671875 2.628906 -7.34375 2.265625 -6.9375 L 2.078125 -6.9375 L 1 -8.546875 C 1.519531 -9.117188 2.148438 -9.5625 2.890625 -9.875 C 3.640625 -10.195312 4.453125 -10.359375 5.328125 -10.359375 C 6.671875 -10.359375 7.644531 -10.070312 8.25 -9.5 C 8.851562 -8.925781 9.15625 -8.113281 9.15625 -7.0625 L 9.15625 -2.65625 C 9.15625 -2.195312 9.351562 -1.96875 9.75 -1.96875 C 9.90625 -1.96875 10.054688 -2 10.203125 -2.0625 L 10.328125 -2.015625 L 10.515625 -0.234375 C 10.367188 -0.140625 10.171875 -0.0625 9.921875 0 C 9.671875 0.0507812 9.394531 0.078125 9.09375 0.078125 C 8.488281 0.078125 8.015625 -0.0351562 7.671875 -0.265625 C 7.328125 -0.503906 7.082031 -0.875 6.9375 -1.375 L 6.75 -1.390625 C 6.25 -0.335938 5.320312 0.1875 3.96875 0.1875 Z M 4.78125 -1.71875 C 5.363281 -1.71875 5.832031 -1.914062 6.1875 -2.3125 C 6.539062 -2.707031 6.71875 -3.257812 6.71875 -3.96875 L 6.71875 -5 L 6.546875 -5.03125 C 6.390625 -4.90625 6.1875 -4.800781 5.9375 -4.71875 C 5.6875 -4.632812 5.328125 -4.554688 4.859375 -4.484375 C 4.304688 -4.390625 3.910156 -4.226562 3.671875 -4 C 3.429688 -3.78125 3.3125 -3.460938 3.3125 -3.046875 C 3.3125 -2.609375 3.4375 -2.273438 3.6875 -2.046875 C 3.945312 -1.828125 4.3125 -1.71875 4.78125 -1.71875 Z M 4.78125 -1.71875 "/></g></g></g><g fill="#ffffff" fill-opacity="1"><g transform="translate(53.422686, 30.437987)"><g><path d="M 7.015625 -2.421875 L 7.671875 -0.53125 C 7.398438 -0.300781 7.054688 -0.125 6.640625 0 C 6.222656 0.125 5.75 0.1875 5.21875 0.1875 C 4.113281 0.1875 3.273438 -0.109375 2.703125 -0.703125 C 2.140625 -1.304688 1.859375 -2.175781 1.859375 -3.3125 L 1.859375 -8.140625 L 0.296875 -8.140625 L 0.296875 -10.171875 L 1.859375 -10.171875 L 1.859375 -12.15625 L 4.40625 -12.578125 L 4.40625 -10.171875 L 7.296875 -10.171875 L 7.296875 -8.140625 L 4.40625 -8.140625 L 4.40625 -3.5 C 4.40625 -3 4.507812 -2.632812 4.71875 -2.40625 C 4.925781 -2.175781 5.226562 -2.0625 5.625 -2.0625 C 6.082031 -2.0625 6.476562 -2.179688 6.8125 -2.421875 Z M 7.015625 -2.421875 "/></g></g></g><g fill="#ffffff" fill-opacity="1"><g transform="translate(10.268507, 56.8259)"><g><path d="M 6.953125 -13.46875 C 7.921875 -13.46875 8.742188 -13.289062 9.421875 -12.9375 C 10.109375 -12.59375 10.628906 -12.097656 10.984375 -11.453125 C 11.335938 -10.816406 11.515625 -10.082031 11.515625 -9.25 C 11.515625 -8.40625 11.335938 -7.664062 10.984375 -7.03125 C 10.628906 -6.394531 10.109375 -5.898438 9.421875 -5.546875 C 8.742188 -5.191406 7.921875 -5.015625 6.953125 -5.015625 L 4.421875 -5.015625 L 4.421875 0 L 1.75 0 L 1.75 -13.46875 Z M 6.609375 -7.140625 C 8.085938 -7.140625 8.828125 -7.84375 8.828125 -9.25 C 8.828125 -10.65625 8.085938 -11.359375 6.609375 -11.359375 L 4.421875 -11.359375 L 4.421875 -7.140625 Z M 6.609375 -7.140625 "/></g></g></g><g fill="#ffffff" fill-opacity="1"><g transform="translate(22.582021, 56.8259)"><g><path d="M 4.21875 0.1875 C 3.300781 0.1875 2.601562 -0.0546875 2.125 -0.546875 C 1.644531 -1.046875 1.40625 -1.796875 1.40625 -2.796875 L 1.40625 -14.25 L 3.953125 -14.25 L 3.953125 -2.90625 C 3.953125 -2.28125 4.210938 -1.96875 4.734375 -1.96875 C 4.878906 -1.96875 5.035156 -1.992188 5.203125 -2.046875 L 5.328125 -2.015625 L 5.5625 -0.046875 C 5.414062 0.0234375 5.222656 0.0820312 4.984375 0.125 C 4.753906 0.164062 4.5 0.1875 4.21875 0.1875 Z M 4.21875 0.1875 "/></g></g></g><g fill="#ffffff" fill-opacity="1"><g transform="translate(28.42541, 56.8259)"><g><path d="M 3.96875 0.1875 C 3.3125 0.1875 2.742188 0.0664062 2.265625 -0.171875 C 1.785156 -0.410156 1.414062 -0.757812 1.15625 -1.21875 C 0.90625 -1.6875 0.78125 -2.242188 0.78125 -2.890625 C 0.78125 -3.492188 0.90625 -4 1.15625 -4.40625 C 1.414062 -4.8125 1.816406 -5.144531 2.359375 -5.40625 C 2.898438 -5.675781 3.609375 -5.878906 4.484375 -6.015625 C 5.085938 -6.117188 5.546875 -6.226562 5.859375 -6.34375 C 6.179688 -6.457031 6.394531 -6.585938 6.5 -6.734375 C 6.613281 -6.878906 6.671875 -7.066406 6.671875 -7.296875 C 6.671875 -7.617188 6.554688 -7.863281 6.328125 -8.03125 C 6.097656 -8.207031 5.722656 -8.296875 5.203125 -8.296875 C 4.628906 -8.296875 4.085938 -8.171875 3.578125 -7.921875 C 3.066406 -7.671875 2.628906 -7.34375 2.265625 -6.9375 L 2.078125 -6.9375 L 1 -8.546875 C 1.519531 -9.117188 2.148438 -9.5625 2.890625 -9.875 C 3.640625 -10.195312 4.453125 -10.359375 5.328125 -10.359375 C 6.671875 -10.359375 7.644531 -10.070312 8.25 -9.5 C 8.851562 -8.925781 9.15625 -8.113281 9.15625 -7.0625 L 9.15625 -2.65625 C 9.15625 -2.195312 9.351562 -1.96875 9.75 -1.96875 C 9.90625 -1.96875 10.054688 -2 10.203125 -2.0625 L 10.328125 -2.015625 L 10.515625 -0.234375 C 10.367188 -0.140625 10.171875 -0.0625 9.921875 0 C 9.671875 0.0507812 9.394531 0.078125 9.09375 0.078125 C 8.488281 0.078125 8.015625 -0.0351562 7.671875 -0.265625 C 7.328125 -0.503906 7.082031 -0.875 6.9375 -1.375 L 6.75 -1.390625 C 6.25 -0.335938 5.320312 0.1875 3.96875 0.1875 Z M 4.78125 -1.71875 C 5.363281 -1.71875 5.832031 -1.914062 6.1875 -2.3125 C 6.539062 -2.707031 6.71875 -3.257812 6.71875 -3.96875 L 6.71875 -5 L 6.546875 -5.03125 C 6.390625 -4.90625 6.1875 -4.800781 5.9375 -4.71875 C 5.6875 -4.632812 5.328125 -4.554688 4.859375 -4.484375 C 4.304688 -4.390625 3.910156 -4.226562 3.671875 -4 C 3.429688 -3.78125 3.3125 -3.460938 3.3125 -3.046875 C 3.3125 -2.609375 3.4375 -2.273438 3.6875 -2.046875 C 3.945312 -1.828125 4.3125 -1.71875 4.78125 -1.71875 Z M 4.78125 -1.71875 "/></g></g></g><g fill="#ffffff" fill-opacity="1"><g transform="translate(39.144439, 56.8259)"><g><path d="M 5.921875 0.1875 C 4.941406 0.1875 4.070312 -0.015625 3.3125 -0.421875 C 2.5625 -0.828125 1.972656 -1.425781 1.546875 -2.21875 C 1.117188 -3.007812 0.90625 -3.960938 0.90625 -5.078125 C 0.90625 -6.191406 1.117188 -7.144531 1.546875 -7.9375 C 1.972656 -8.738281 2.5625 -9.34375 3.3125 -9.75 C 4.0625 -10.15625 4.914062 -10.359375 5.875 -10.359375 C 8.019531 -10.359375 9.394531 -9.582031 10 -8.03125 L 8.25 -6.78125 L 8.0625 -6.78125 C 7.84375 -7.257812 7.566406 -7.613281 7.234375 -7.84375 C 6.898438 -8.070312 6.445312 -8.1875 5.875 -8.1875 C 5.144531 -8.1875 4.570312 -7.929688 4.15625 -7.421875 C 3.75 -6.910156 3.546875 -6.128906 3.546875 -5.078125 C 3.546875 -4.035156 3.753906 -3.253906 4.171875 -2.734375 C 4.585938 -2.222656 5.171875 -1.96875 5.921875 -1.96875 C 6.472656 -1.96875 6.941406 -2.113281 7.328125 -2.40625 C 7.710938 -2.707031 7.988281 -3.140625 8.15625 -3.703125 L 8.34375 -3.71875 L 10.171875 -2.734375 C 9.910156 -1.867188 9.429688 -1.164062 8.734375 -0.625 C 8.035156 -0.0820312 7.097656 0.1875 5.921875 0.1875 Z M 5.921875 0.1875 "/></g></g></g><g fill="#ffffff" fill-opacity="1"><g transform="translate(49.623834, 56.8259)"><g><path d="M 10.046875 -4.5 L 3.515625 -4.5 C 3.585938 -3.613281 3.835938 -2.96875 4.265625 -2.5625 C 4.691406 -2.164062 5.28125 -1.96875 6.03125 -1.96875 C 6.613281 -1.96875 7.082031 -2.078125 7.4375 -2.296875 C 7.800781 -2.515625 8.097656 -2.847656 8.328125 -3.296875 L 8.515625 -3.296875 L 10.21875 -2.203125 C 9.882812 -1.492188 9.378906 -0.914062 8.703125 -0.46875 C 8.035156 -0.03125 7.144531 0.1875 6.03125 0.1875 C 4.976562 0.1875 4.066406 -0.0078125 3.296875 -0.40625 C 2.535156 -0.800781 1.945312 -1.394531 1.53125 -2.1875 C 1.113281 -2.976562 0.90625 -3.941406 0.90625 -5.078125 C 0.90625 -6.234375 1.125 -7.207031 1.5625 -8 C 2 -8.789062 2.585938 -9.378906 3.328125 -9.765625 C 4.078125 -10.160156 4.914062 -10.359375 5.84375 -10.359375 C 7.28125 -10.359375 8.378906 -9.976562 9.140625 -9.21875 C 9.910156 -8.457031 10.296875 -7.335938 10.296875 -5.859375 C 10.296875 -5.328125 10.273438 -4.914062 10.234375 -4.625 Z M 7.859375 -6.15625 C 7.828125 -6.925781 7.644531 -7.488281 7.3125 -7.84375 C 6.976562 -8.195312 6.488281 -8.375 5.84375 -8.375 C 4.550781 -8.375 3.789062 -7.632812 3.5625 -6.15625 Z M 7.859375 -6.15625 "/></g></g></g><g fill="#ffffff" fill-opacity="1"><g transform="translate(23.975338, 83.213814)"><g><path d="M 10.796875 -13.46875 L 10.796875 -11.234375 L 6.90625 -11.234375 L 6.90625 0 L 4.265625 0 L 4.265625 -11.234375 L 0.375 -11.234375 L 0.375 -13.46875 Z M 10.796875 -13.46875 "/></g></g></g><g fill="#ffffff" fill-opacity="1"><g transform="translate(35.145981, 83.213814)"><g><path d="M 5.90625 0.1875 C 4.914062 0.1875 4.039062 -0.015625 3.28125 -0.421875 C 2.53125 -0.828125 1.945312 -1.425781 1.53125 -2.21875 C 1.113281 -3.007812 0.90625 -3.960938 0.90625 -5.078125 C 0.90625 -6.191406 1.113281 -7.144531 1.53125 -7.9375 C 1.945312 -8.738281 2.53125 -9.34375 3.28125 -9.75 C 4.039062 -10.15625 4.914062 -10.359375 5.90625 -10.359375 C 6.90625 -10.359375 7.78125 -10.15625 8.53125 -9.75 C 9.28125 -9.34375 9.863281 -8.738281 10.28125 -7.9375 C 10.695312 -7.144531 10.90625 -6.191406 10.90625 -5.078125 C 10.90625 -3.960938 10.695312 -3.007812 10.28125 -2.21875 C 9.863281 -1.425781 9.28125 -0.828125 8.53125 -0.421875 C 7.78125 -0.015625 6.90625 0.1875 5.90625 0.1875 Z M 5.90625 -1.96875 C 7.488281 -1.96875 8.28125 -3.003906 8.28125 -5.078125 C 8.28125 -6.148438 8.078125 -6.9375 7.671875 -7.4375 C 7.265625 -7.9375 6.675781 -8.1875 5.90625 -8.1875 C 4.332031 -8.1875 3.546875 -7.148438 3.546875 -5.078125 C 3.546875 -3.003906 4.332031 -1.96875 5.90625 -1.96875 Z M 5.90625 -1.96875 "/></g></g></g><g fill="#ffffff" fill-opacity="1"><g transform="translate(11.656286, 109.601728)"><g><path d="M 6.4375 0 L 3.453125 0 L 0.375 -13.46875 L 3.015625 -13.46875 L 5.0625 -4 L 5.296875 -4 L 7.703125 -13.46875 L 9.984375 -13.46875 L 12.4375 -4 L 12.671875 -4 L 14.71875 -13.46875 L 17.28125 -13.46875 L 14.203125 0 L 11.21875 0 L 8.859375 -8.6875 L 8.65625 -8.6875 Z M 6.4375 0 "/></g></g></g><g fill="#ffffff" fill-opacity="1"><g transform="translate(29.297053, 109.601728)"><g><path d="M 5.90625 0.1875 C 4.914062 0.1875 4.039062 -0.015625 3.28125 -0.421875 C 2.53125 -0.828125 1.945312 -1.425781 1.53125 -2.21875 C 1.113281 -3.007812 0.90625 -3.960938 0.90625 -5.078125 C 0.90625 -6.191406 1.113281 -7.144531 1.53125 -7.9375 C 1.945312 -8.738281 2.53125 -9.34375 3.28125 -9.75 C 4.039062 -10.15625 4.914062 -10.359375 5.90625 -10.359375 C 6.90625 -10.359375 7.78125 -10.15625 8.53125 -9.75 C 9.28125 -9.34375 9.863281 -8.738281 10.28125 -7.9375 C 10.695312 -7.144531 10.90625 -6.191406 10.90625 -5.078125 C 10.90625 -3.960938 10.695312 -3.007812 10.28125 -2.21875 C 9.863281 -1.425781 9.28125 -0.828125 8.53125 -0.421875 C 7.78125 -0.015625 6.90625 0.1875 5.90625 0.1875 Z M 5.90625 -1.96875 C 7.488281 -1.96875 8.28125 -3.003906 8.28125 -5.078125 C 8.28125 -6.148438 8.078125 -6.9375 7.671875 -7.4375 C 7.265625 -7.9375 6.675781 -8.1875 5.90625 -8.1875 C 4.332031 -8.1875 3.546875 -7.148438 3.546875 -5.078125 C 3.546875 -3.003906 4.332031 -1.96875 5.90625 -1.96875 Z M 5.90625 -1.96875 "/></g></g></g><g fill="#ffffff" fill-opacity="1"><g transform="translate(41.112865, 109.601728)"><g><path d="M 1.46875 0 L 1.46875 -10.171875 L 3.9375 -10.171875 L 3.9375 -8.65625 L 4.140625 -8.625 C 4.378906 -9.1875 4.695312 -9.597656 5.09375 -9.859375 C 5.5 -10.117188 5.988281 -10.25 6.5625 -10.25 C 7.132812 -10.25 7.570312 -10.15625 7.875 -9.96875 L 7.453125 -7.765625 L 7.25 -7.71875 C 7.082031 -7.789062 6.921875 -7.84375 6.765625 -7.875 C 6.617188 -7.90625 6.4375 -7.921875 6.21875 -7.921875 C 5.5 -7.921875 4.953125 -7.671875 4.578125 -7.171875 C 4.203125 -6.671875 4.015625 -5.863281 4.015625 -4.75 L 4.015625 0 Z M 1.46875 0 "/></g></g></g><g fill="#ffffff" fill-opacity="1"><g transform="translate(49.085317, 109.601728)"><g><path d="M 1.46875 0 L 1.46875 -14.25 L 4.015625 -14.25 L 4.015625 -6.34375 L 4.265625 -6.34375 L 7.203125 -10.171875 L 9.796875 -10.171875 L 9.796875 -9.953125 L 6.34375 -5.5 L 10.1875 -0.234375 L 10.1875 0 L 7.5 0 L 4.265625 -4.28125 L 4.015625 -4.28125 L 4.015625 0 Z M 1.46875 0 "/></g></g></g></svg>