<svg xmlns="http://www.w3.org/2000/svg" xmlns:xlink="http://www.w3.org/1999/xlink" width="235" zoomAndPan="magnify" viewBox="0 0 176.25 155.249994" height="207" preserveAspectRatio="xMidYMid meet" version="1.0"><defs><clipPath id="9996502cfd"><path d="M 55.648438 46.351562 L 119.835938 46.351562 L 119.835938 108 L 55.648438 108 Z M 55.648438 46.351562 " clip-rule="nonzero"/></clipPath></defs><g clip-path="url(#9996502cfd)"><path fill="#ffffff" d="M 55.6875 80.628906 C 55.6875 80.644531 55.6875 80.664062 55.6875 80.679688 C 55.691406 80.816406 55.699219 80.953125 55.707031 81.09375 C 55.785156 82.503906 56.023438 83.960938 55.792969 85.164062 C 55.636719 85.996094 55.636719 87.550781 56.851562 87.46875 C 56.855469 87.46875 56.855469 87.46875 56.859375 87.46875 C 58.359375 87.363281 57.460938 84.242188 57.628906 83.417969 C 57.722656 82.9375 57.980469 82.355469 58.34375 82.324219 C 58.503906 82.308594 58.691406 82.410156 58.890625 82.679688 C 59.382812 83.34375 59.527344 84.570312 59.429688 85.371094 C 59.277344 86.582031 58.273438 87.710938 58.433594 88.953125 C 58.558594 89.960938 59.308594 90.476562 60.0625 90.445312 C 60.648438 90.421875 61.238281 90.070312 61.535156 89.359375 C 62.132812 87.921875 61.410156 86.382812 61.71875 84.929688 C 61.886719 85.785156 62.765625 86.320312 63.4375 86.761719 C 63.535156 86.824219 64.101562 87.140625 64.652344 87.410156 C 64.878906 87.574219 65.128906 87.6875 65.386719 87.75 C 65.507812 87.796875 65.609375 87.828125 65.671875 87.835938 C 65.722656 87.84375 65.746094 87.835938 65.75 87.8125 C 65.855469 88.714844 66.054688 89.019531 66.289062 89.015625 C 66.726562 89.019531 67.28125 87.890625 67.53125 87.644531 C 67.53125 87.644531 70.726562 83.582031 70.953125 83.292969 L 94.675781 57.242188 C 95.472656 56.363281 95.410156 55.003906 94.535156 54.203125 L 93.621094 53.375 L 90.828125 50.832031 L 91.460938 50.140625 C 91.855469 49.699219 92.539062 49.667969 92.976562 50.066406 L 99.625 56.121094 C 100.0625 56.519531 100.09375 57.199219 99.695312 57.636719 L 85.421875 73.3125 C 84.226562 74.628906 84.320312 76.671875 85.632812 77.863281 L 89.800781 81.660156 L 89.125 82.40625 L 89.125 82.402344 L 89.011719 82.527344 L 88.28125 83.328125 C 88.277344 83.332031 88.277344 83.335938 88.273438 83.339844 L 88.238281 83.378906 C 87.835938 83.816406 87.867188 84.496094 88.304688 84.894531 L 113.3125 107.660156 C 113.75 108.058594 114.429688 108.027344 114.832031 107.589844 L 114.867188 107.546875 C 114.871094 107.542969 114.871094 107.542969 114.875 107.542969 L 119.453125 102.515625 C 119.851562 102.074219 119.816406 101.394531 119.382812 100.996094 L 94.375 78.230469 C 93.9375 77.832031 93.257812 77.863281 92.859375 78.300781 L 91.246094 80.074219 L 87.078125 76.28125 C 86.640625 75.878906 86.609375 75.199219 87.011719 74.761719 L 101.28125 59.082031 C 102.476562 57.769531 102.382812 55.730469 101.070312 54.53125 L 94.421875 48.480469 C 93.109375 47.285156 91.066406 47.378906 89.875 48.691406 L 89.238281 49.386719 L 86.859375 47.21875 C 85.980469 46.421875 84.625 46.484375 83.824219 47.359375 L 56.632812 77.230469 C 55.800781 78.140625 55.648438 79.351562 55.6875 80.628906 Z M 55.6875 80.628906 " fill-opacity="1" fill-rule="nonzero"/></g></svg>