<svg xmlns="http://www.w3.org/2000/svg" xmlns:xlink="http://www.w3.org/1999/xlink" width="150" zoomAndPan="magnify" viewBox="0 0 112.5 112.499997" height="150" preserveAspectRatio="xMidYMid meet" version="1.0"><defs><clipPath id="a9f8fd7aae"><path d="M 6.488281 8.347656 L 103.558594 8.347656 L 103.558594 101.679688 L 6.488281 101.679688 Z M 6.488281 8.347656 " clip-rule="nonzero"/></clipPath></defs><g clip-path="url(#a9f8fd7aae)"><path fill="#ffffff" d="M 6.546875 60.148438 C 6.546875 60.171875 6.550781 60.199219 6.550781 60.226562 C 6.554688 60.433594 6.566406 60.640625 6.578125 60.851562 C 6.699219 62.980469 7.058594 65.183594 6.710938 67.003906 C 6.472656 68.257812 6.472656 70.613281 8.308594 70.484375 C 8.3125 70.484375 8.316406 70.484375 8.320312 70.484375 C 10.589844 70.328125 9.234375 65.605469 9.480469 64.363281 C 9.625 63.636719 10.015625 62.757812 10.5625 62.707031 C 10.808594 62.691406 11.085938 62.839844 11.390625 63.246094 C 12.132812 64.25 12.355469 66.105469 12.203125 67.316406 C 11.976562 69.148438 10.457031 70.847656 10.699219 72.730469 C 10.890625 74.253906 12.027344 75.03125 13.164062 74.984375 C 14.050781 74.949219 14.941406 74.417969 15.386719 73.34375 C 16.292969 71.171875 15.199219 68.84375 15.664062 66.648438 C 15.917969 67.941406 17.25 68.753906 18.261719 69.414062 C 18.410156 69.511719 19.269531 69.988281 20.101562 70.398438 C 20.441406 70.644531 20.820312 70.8125 21.210938 70.910156 C 21.394531 70.980469 21.542969 71.03125 21.640625 71.042969 C 21.714844 71.054688 21.753906 71.039062 21.757812 71.003906 C 21.921875 72.367188 22.222656 72.828125 22.570312 72.824219 C 23.234375 72.832031 24.074219 71.125 24.453125 70.753906 C 24.453125 70.753906 29.28125 64.613281 29.625 64.175781 L 65.476562 24.800781 C 66.679688 23.472656 66.589844 21.421875 65.261719 20.210938 L 63.878906 18.957031 L 59.660156 15.117188 L 60.617188 14.066406 C 61.214844 13.402344 62.246094 13.355469 62.90625 13.957031 L 72.957031 23.105469 C 73.621094 23.710938 73.667969 24.738281 73.066406 25.402344 L 51.488281 49.09375 C 49.683594 51.078125 49.824219 54.164062 51.8125 55.96875 L 58.109375 61.707031 L 57.085938 62.832031 L 56.914062 63.019531 L 55.8125 64.230469 C 55.808594 64.234375 55.804688 64.242188 55.800781 64.246094 L 55.746094 64.304688 C 55.136719 64.96875 55.1875 65.996094 55.847656 66.597656 L 93.640625 101.003906 C 94.304688 101.609375 95.332031 101.558594 95.9375 100.894531 L 95.992188 100.832031 C 95.996094 100.828125 96 100.828125 96.003906 100.824219 L 102.921875 93.226562 C 103.527344 92.558594 103.476562 91.535156 102.816406 90.933594 L 65.019531 56.523438 C 64.359375 55.917969 63.332031 55.96875 62.730469 56.632812 L 60.292969 59.308594 L 53.996094 53.574219 C 53.332031 52.96875 53.285156 51.941406 53.890625 51.277344 L 75.460938 27.582031 C 77.269531 25.597656 77.125 22.515625 75.140625 20.707031 L 65.09375 11.5625 C 63.105469 9.75 60.023438 9.894531 58.21875 11.878906 L 57.261719 12.929688 L 53.664062 9.65625 C 52.335938 8.449219 50.285156 8.542969 49.074219 9.867188 L 7.976562 55.007812 C 6.722656 56.386719 6.492188 58.214844 6.546875 60.148438 Z M 6.546875 60.148438 " fill-opacity="1" fill-rule="nonzero"/></g></svg>